<svg class="icon" viewBox="-200 -200 1424 1424" xmlns="http://www.w3.org/2000/svg" width="100" height="100">
  <style>
    .bg { fill: #F5F5F5; }  /* 柔和灰白 */
    .main { fill: #262626; } /* 高级深灰黑 */
  </style>
  <rect class="bg" x="-200" y="-200" width="1424" height="1424"></rect>
  <g transform="scale(0.94) translate(32 32)">
    <path class="main" d="M878.912 617.152 
         a231.168 231.168 0 0 0 -186.88 -186.88 
         V-102.4 
         H611.584 
         v532.608 
         a231.168 231.168 0 0 0 -186.88 186.944 
         H-102.4 
         v80.32 
         H424.768 
         a231.168 231.168 0 0 0 186.88 186.88 
         V1024 
         h80.32 
         v-139.584 
         a231.168 231.168 0 0 0 186.88 -186.944 
         h139.328 
         V617.152 
         h-139.264 
         z 
         m-227.008 164.224 
         a120 120 0 1 1 0 -240 
         a120 120 0 0 1 0 240 
         z"></path>
  </g>
</svg>
